<mxfile host="app.diagrams.net" agent="Mozilla/5.0 (Windows NT 10.0; Win64; x64) AppleWebKit/537.36 (KHTML, like Gecko) Chrome/129.0.0.0 Safari/537.36" version="24.7.17">
  <diagram id="Ht1M8jgEwFfnCIfOTk4-" name="Page-1">
    <mxGraphModel dx="1888" dy="1341" grid="1" gridSize="10" guides="1" tooltips="1" connect="1" arrows="1" fold="1" page="1" pageScale="1" pageWidth="1169" pageHeight="827" math="0" shadow="0">
      <root>
        <mxCell id="0" />
        <mxCell id="1" parent="0" />
        <mxCell id="UEzPUAAOIrF-is8g5C7q-74" value="AWS Cloud" style="points=[[0,0],[0.25,0],[0.5,0],[0.75,0],[1,0],[1,0.25],[1,0.5],[1,0.75],[1,1],[0.75,1],[0.5,1],[0.25,1],[0,1],[0,0.75],[0,0.5],[0,0.25]];outlineConnect=0;gradientColor=none;html=1;whiteSpace=wrap;fontSize=12;fontStyle=0;shape=mxgraph.aws4.group;grIcon=mxgraph.aws4.group_aws_cloud_alt;strokeColor=#232F3E;fillColor=none;verticalAlign=top;align=left;spacingLeft=30;fontColor=#232F3E;dashed=0;labelBackgroundColor=#ffffff;container=1;pointerEvents=0;collapsible=0;recursiveResize=0;" parent="1" vertex="1">
          <mxGeometry x="40" y="80" width="1080" height="760" as="geometry" />
        </mxCell>
        <mxCell id="g3gq_HhnG7qoFRwAYCXK-2" value="VPC" style="points=[[0,0],[0.25,0],[0.5,0],[0.75,0],[1,0],[1,0.25],[1,0.5],[1,0.75],[1,1],[0.75,1],[0.5,1],[0.25,1],[0,1],[0,0.75],[0,0.5],[0,0.25]];outlineConnect=0;gradientColor=none;html=1;whiteSpace=wrap;fontSize=12;fontStyle=0;container=1;pointerEvents=0;collapsible=0;recursiveResize=0;shape=mxgraph.aws4.group;grIcon=mxgraph.aws4.group_vpc2;strokeColor=#8C4FFF;fillColor=none;verticalAlign=top;align=left;spacingLeft=30;fontColor=#AAB7B8;dashed=0;" parent="1" vertex="1">
          <mxGeometry x="80" y="120" width="1000" height="680" as="geometry" />
        </mxCell>
        <mxCell id="g3gq_HhnG7qoFRwAYCXK-3" value="Public subnet" style="points=[[0,0],[0.25,0],[0.5,0],[0.75,0],[1,0],[1,0.25],[1,0.5],[1,0.75],[1,1],[0.75,1],[0.5,1],[0.25,1],[0,1],[0,0.75],[0,0.5],[0,0.25]];outlineConnect=0;gradientColor=none;html=1;whiteSpace=wrap;fontSize=12;fontStyle=0;container=1;pointerEvents=0;collapsible=0;recursiveResize=0;shape=mxgraph.aws4.group;grIcon=mxgraph.aws4.group_security_group;grStroke=0;strokeColor=#7AA116;fillColor=#F2F6E8;verticalAlign=top;align=left;spacingLeft=30;fontColor=#248814;dashed=0;" parent="g3gq_HhnG7qoFRwAYCXK-2" vertex="1">
          <mxGeometry x="40" y="320" width="440" height="240" as="geometry" />
        </mxCell>
        <mxCell id="g3gq_HhnG7qoFRwAYCXK-4" value="Public subnet" style="points=[[0,0],[0.25,0],[0.5,0],[0.75,0],[1,0],[1,0.25],[1,0.5],[1,0.75],[1,1],[0.75,1],[0.5,1],[0.25,1],[0,1],[0,0.75],[0,0.5],[0,0.25]];outlineConnect=0;gradientColor=none;html=1;whiteSpace=wrap;fontSize=12;fontStyle=0;container=1;pointerEvents=0;collapsible=0;recursiveResize=0;shape=mxgraph.aws4.group;grIcon=mxgraph.aws4.group_security_group;grStroke=0;strokeColor=#7AA116;fillColor=#F2F6E8;verticalAlign=top;align=left;spacingLeft=30;fontColor=#248814;dashed=0;" parent="g3gq_HhnG7qoFRwAYCXK-2" vertex="1">
          <mxGeometry x="40" y="40" width="440" height="240" as="geometry" />
        </mxCell>
        <mxCell id="g3gq_HhnG7qoFRwAYCXK-25" value="NAT Gateway" style="text;strokeColor=none;fillColor=none;html=1;fontSize=24;fontStyle=1;verticalAlign=middle;align=center;" parent="g3gq_HhnG7qoFRwAYCXK-4" vertex="1">
          <mxGeometry x="170" y="168" width="100" height="40" as="geometry" />
        </mxCell>
        <mxCell id="_2_E5L0Grp9sQH2yOiXv-1" value="" style="sketch=0;outlineConnect=0;fontColor=#232F3E;gradientColor=none;fillColor=#8C4FFF;strokeColor=none;dashed=0;verticalLabelPosition=bottom;verticalAlign=top;align=center;html=1;fontSize=12;fontStyle=0;aspect=fixed;pointerEvents=1;shape=mxgraph.aws4.nat_gateway;" vertex="1" parent="g3gq_HhnG7qoFRwAYCXK-4">
          <mxGeometry x="181" y="90" width="78" height="78" as="geometry" />
        </mxCell>
        <mxCell id="g3gq_HhnG7qoFRwAYCXK-5" value="Private subnet" style="points=[[0,0],[0.25,0],[0.5,0],[0.75,0],[1,0],[1,0.25],[1,0.5],[1,0.75],[1,1],[0.75,1],[0.5,1],[0.25,1],[0,1],[0,0.75],[0,0.5],[0,0.25]];outlineConnect=0;gradientColor=none;html=1;whiteSpace=wrap;fontSize=12;fontStyle=0;container=1;pointerEvents=0;collapsible=0;recursiveResize=0;shape=mxgraph.aws4.group;grIcon=mxgraph.aws4.group_security_group;grStroke=0;strokeColor=#00A4A6;fillColor=#E6F6F7;verticalAlign=top;align=left;spacingLeft=30;fontColor=#147EBA;dashed=0;" parent="g3gq_HhnG7qoFRwAYCXK-2" vertex="1">
          <mxGeometry x="520" y="40" width="440" height="240" as="geometry" />
        </mxCell>
        <mxCell id="g3gq_HhnG7qoFRwAYCXK-9" value="" style="sketch=0;points=[[0,0,0],[0.25,0,0],[0.5,0,0],[0.75,0,0],[1,0,0],[0,1,0],[0.25,1,0],[0.5,1,0],[0.75,1,0],[1,1,0],[0,0.25,0],[0,0.5,0],[0,0.75,0],[1,0.25,0],[1,0.5,0],[1,0.75,0]];outlineConnect=0;fontColor=#232F3E;fillColor=#C925D1;strokeColor=#ffffff;dashed=0;verticalLabelPosition=bottom;verticalAlign=top;align=center;html=1;fontSize=12;fontStyle=0;aspect=fixed;shape=mxgraph.aws4.resourceIcon;resIcon=mxgraph.aws4.elasticache;" parent="g3gq_HhnG7qoFRwAYCXK-5" vertex="1">
          <mxGeometry x="190" y="90" width="78" height="78" as="geometry" />
        </mxCell>
        <mxCell id="g3gq_HhnG7qoFRwAYCXK-26" value="ElastiCache" style="text;strokeColor=none;fillColor=none;html=1;fontSize=24;fontStyle=1;verticalAlign=middle;align=center;" parent="g3gq_HhnG7qoFRwAYCXK-5" vertex="1">
          <mxGeometry x="179" y="168" width="100" height="40" as="geometry" />
        </mxCell>
        <mxCell id="g3gq_HhnG7qoFRwAYCXK-37" value="VPC Connector" style="text;strokeColor=none;fillColor=none;html=1;fontSize=24;fontStyle=1;verticalAlign=middle;align=center;" parent="g3gq_HhnG7qoFRwAYCXK-5" vertex="1">
          <mxGeometry x="310" y="10" width="100" height="40" as="geometry" />
        </mxCell>
        <mxCell id="g3gq_HhnG7qoFRwAYCXK-6" value="Private subnet" style="points=[[0,0],[0.25,0],[0.5,0],[0.75,0],[1,0],[1,0.25],[1,0.5],[1,0.75],[1,1],[0.75,1],[0.5,1],[0.25,1],[0,1],[0,0.75],[0,0.5],[0,0.25]];outlineConnect=0;gradientColor=none;html=1;whiteSpace=wrap;fontSize=12;fontStyle=0;container=1;pointerEvents=0;collapsible=0;recursiveResize=0;shape=mxgraph.aws4.group;grIcon=mxgraph.aws4.group_security_group;grStroke=0;strokeColor=#00A4A6;fillColor=#E6F6F7;verticalAlign=top;align=left;spacingLeft=30;fontColor=#147EBA;dashed=0;" parent="g3gq_HhnG7qoFRwAYCXK-2" vertex="1">
          <mxGeometry x="520" y="320" width="440" height="240" as="geometry" />
        </mxCell>
        <mxCell id="g3gq_HhnG7qoFRwAYCXK-10" value="" style="sketch=0;outlineConnect=0;fontColor=#232F3E;gradientColor=none;fillColor=#8C4FFF;strokeColor=none;dashed=0;verticalLabelPosition=bottom;verticalAlign=top;align=center;html=1;fontSize=12;fontStyle=0;aspect=fixed;pointerEvents=1;shape=mxgraph.aws4.route_table;" parent="g3gq_HhnG7qoFRwAYCXK-2" vertex="1">
          <mxGeometry x="40" y="580" width="78" height="76" as="geometry" />
        </mxCell>
        <mxCell id="g3gq_HhnG7qoFRwAYCXK-13" value="Elastic IP&#xa;Address" style="sketch=0;outlineConnect=0;fontColor=#232F3E;gradientColor=none;strokeColor=#232F3E;fillColor=#ffffff;dashed=0;verticalLabelPosition=bottom;verticalAlign=top;align=center;html=1;fontSize=12;fontStyle=0;aspect=fixed;shape=mxgraph.aws4.resourceIcon;resIcon=mxgraph.aws4.elastic_ip_address;" parent="g3gq_HhnG7qoFRwAYCXK-2" vertex="1">
          <mxGeometry x="140" y="580" width="60" height="60" as="geometry" />
        </mxCell>
        <mxCell id="g3gq_HhnG7qoFRwAYCXK-15" value="" style="sketch=0;outlineConnect=0;fontColor=#232F3E;gradientColor=none;fillColor=#DD344C;strokeColor=none;dashed=0;verticalLabelPosition=bottom;verticalAlign=top;align=center;html=1;fontSize=12;fontStyle=0;aspect=fixed;pointerEvents=1;shape=mxgraph.aws4.role;" parent="g3gq_HhnG7qoFRwAYCXK-2" vertex="1">
          <mxGeometry x="230" y="588" width="78" height="44" as="geometry" />
        </mxCell>
        <mxCell id="g3gq_HhnG7qoFRwAYCXK-11" value="" style="sketch=0;outlineConnect=0;fontColor=#232F3E;gradientColor=none;fillColor=#8C4FFF;strokeColor=none;dashed=0;verticalLabelPosition=bottom;verticalAlign=top;align=center;html=1;fontSize=12;fontStyle=0;aspect=fixed;pointerEvents=1;shape=mxgraph.aws4.internet_gateway;" parent="g3gq_HhnG7qoFRwAYCXK-2" vertex="1">
          <mxGeometry x="-38" y="130" width="78" height="78" as="geometry" />
        </mxCell>
        <mxCell id="g3gq_HhnG7qoFRwAYCXK-48" value="" style="edgeStyle=orthogonalEdgeStyle;html=1;endArrow=block;elbow=vertical;startArrow=block;startFill=1;endFill=1;strokeColor=#545B64;rounded=0;entryX=0;entryY=0.5;entryDx=0;entryDy=0;entryPerimeter=0;" parent="g3gq_HhnG7qoFRwAYCXK-2" source="g3gq_HhnG7qoFRwAYCXK-11" edge="1">
          <mxGeometry width="100" relative="1" as="geometry">
            <mxPoint x="370" y="320" as="sourcePoint" />
            <mxPoint x="221" y="169" as="targetPoint" />
          </mxGeometry>
        </mxCell>
        <mxCell id="g3gq_HhnG7qoFRwAYCXK-7" value="" style="sketch=0;points=[[0,0,0],[0.25,0,0],[0.5,0,0],[0.75,0,0],[1,0,0],[0,1,0],[0.25,1,0],[0.5,1,0],[0.75,1,0],[1,1,0],[0,0.25,0],[0,0.5,0],[0,0.75,0],[1,0.25,0],[1,0.5,0],[1,0.75,0]];outlineConnect=0;fontColor=#232F3E;fillColor=#ED7100;strokeColor=#ffffff;dashed=0;verticalLabelPosition=bottom;verticalAlign=top;align=center;html=1;fontSize=12;fontStyle=0;aspect=fixed;shape=mxgraph.aws4.resourceIcon;resIcon=mxgraph.aws4.app_runner;" parent="1" vertex="1">
          <mxGeometry x="790" y="-40" width="78" height="78" as="geometry" />
        </mxCell>
        <mxCell id="g3gq_HhnG7qoFRwAYCXK-14" value="" style="sketch=0;points=[[0,0,0],[0.25,0,0],[0.5,0,0],[0.75,0,0],[1,0,0],[0,1,0],[0.25,1,0],[0.5,1,0],[0.75,1,0],[1,1,0],[0,0.25,0],[0,0.5,0],[0,0.75,0],[1,0.25,0],[1,0.5,0],[1,0.75,0]];outlineConnect=0;fontColor=#232F3E;fillColor=#ED7100;strokeColor=#ffffff;dashed=0;verticalLabelPosition=bottom;verticalAlign=top;align=center;html=1;fontSize=12;fontStyle=0;aspect=fixed;shape=mxgraph.aws4.resourceIcon;resIcon=mxgraph.aws4.ecr;" parent="1" vertex="1">
          <mxGeometry x="980" y="-40" width="78" height="78" as="geometry" />
        </mxCell>
        <mxCell id="g3gq_HhnG7qoFRwAYCXK-17" value="" style="sketch=0;outlineConnect=0;fontColor=#232F3E;gradientColor=none;fillColor=#232F3D;strokeColor=none;dashed=0;verticalLabelPosition=bottom;verticalAlign=top;align=center;html=1;fontSize=12;fontStyle=0;aspect=fixed;pointerEvents=1;shape=mxgraph.aws4.user;" parent="1" vertex="1">
          <mxGeometry x="-349" y="241" width="78" height="78" as="geometry" />
        </mxCell>
        <mxCell id="g3gq_HhnG7qoFRwAYCXK-24" value="" style="edgeStyle=orthogonalEdgeStyle;html=1;endArrow=block;elbow=vertical;startArrow=none;endFill=1;strokeColor=#545B64;rounded=0;entryX=1;entryY=0.5;entryDx=0;entryDy=0;entryPerimeter=0;exitX=0;exitY=0.5;exitDx=0;exitDy=0;exitPerimeter=0;" parent="1" source="g3gq_HhnG7qoFRwAYCXK-14" target="g3gq_HhnG7qoFRwAYCXK-7" edge="1">
          <mxGeometry width="100" relative="1" as="geometry">
            <mxPoint x="920" y="30" as="sourcePoint" />
            <mxPoint x="800" y="299" as="targetPoint" />
          </mxGeometry>
        </mxCell>
        <mxCell id="g3gq_HhnG7qoFRwAYCXK-27" value="App Runner" style="text;strokeColor=none;fillColor=none;html=1;fontSize=24;fontStyle=1;verticalAlign=middle;align=center;" parent="1" vertex="1">
          <mxGeometry x="779" y="-90" width="100" height="40" as="geometry" />
        </mxCell>
        <mxCell id="g3gq_HhnG7qoFRwAYCXK-29" value="ECR" style="text;strokeColor=none;fillColor=none;html=1;fontSize=24;fontStyle=1;verticalAlign=middle;align=center;" parent="1" vertex="1">
          <mxGeometry x="969" y="-90" width="100" height="40" as="geometry" />
        </mxCell>
        <mxCell id="g3gq_HhnG7qoFRwAYCXK-30" value="" style="sketch=0;outlineConnect=0;fontColor=#232F3E;gradientColor=none;fillColor=#232F3D;strokeColor=none;dashed=0;verticalLabelPosition=bottom;verticalAlign=top;align=center;html=1;fontSize=12;fontStyle=0;aspect=fixed;pointerEvents=1;shape=mxgraph.aws4.user;" parent="1" vertex="1">
          <mxGeometry x="1190" y="-40" width="78" height="78" as="geometry" />
        </mxCell>
        <mxCell id="g3gq_HhnG7qoFRwAYCXK-32" value="" style="edgeStyle=orthogonalEdgeStyle;html=1;endArrow=none;elbow=vertical;startArrow=block;startFill=1;strokeColor=#545B64;rounded=0;exitX=1;exitY=0.5;exitDx=0;exitDy=0;exitPerimeter=0;" parent="1" source="g3gq_HhnG7qoFRwAYCXK-14" edge="1">
          <mxGeometry width="100" relative="1" as="geometry">
            <mxPoint x="1100" y="-1.2800000000000011" as="sourcePoint" />
            <mxPoint x="1200" y="-1.2800000000000011" as="targetPoint" />
          </mxGeometry>
        </mxCell>
        <mxCell id="g3gq_HhnG7qoFRwAYCXK-33" value="Developer" style="text;strokeColor=none;fillColor=none;html=1;fontSize=24;fontStyle=1;verticalAlign=middle;align=center;" parent="1" vertex="1">
          <mxGeometry x="1179" y="-80" width="100" height="40" as="geometry" />
        </mxCell>
        <mxCell id="g3gq_HhnG7qoFRwAYCXK-34" value="User" style="text;strokeColor=none;fillColor=none;html=1;fontSize=24;fontStyle=1;verticalAlign=middle;align=center;" parent="1" vertex="1">
          <mxGeometry x="-360" y="330" width="100" height="40" as="geometry" />
        </mxCell>
        <mxCell id="g3gq_HhnG7qoFRwAYCXK-35" value="" style="ellipse;whiteSpace=wrap;html=1;" parent="1" vertex="1">
          <mxGeometry x="794" y="140" width="70" height="60" as="geometry" />
        </mxCell>
        <mxCell id="g3gq_HhnG7qoFRwAYCXK-38" value="" style="outlineConnect=0;dashed=0;verticalLabelPosition=bottom;verticalAlign=top;align=center;html=1;shape=mxgraph.aws3.internet_3;fillColor=#D2D3D3;gradientColor=none;" parent="1" vertex="1">
          <mxGeometry x="-150" y="253" width="79.5" height="54" as="geometry" />
        </mxCell>
        <mxCell id="g3gq_HhnG7qoFRwAYCXK-41" value="" style="shape=cylinder3;whiteSpace=wrap;html=1;boundedLbl=1;backgroundOutline=1;size=15;" parent="1" vertex="1">
          <mxGeometry x="-155.25" y="413" width="90" height="60" as="geometry" />
        </mxCell>
        <mxCell id="g3gq_HhnG7qoFRwAYCXK-42" value="Supabase" style="text;strokeColor=none;fillColor=none;html=1;fontSize=24;fontStyle=1;verticalAlign=middle;align=center;" parent="1" vertex="1">
          <mxGeometry x="-160.25" y="473" width="100" height="40" as="geometry" />
        </mxCell>
        <mxCell id="g3gq_HhnG7qoFRwAYCXK-43" value="" style="edgeStyle=orthogonalEdgeStyle;html=1;endArrow=block;elbow=vertical;startArrow=block;startFill=1;endFill=1;strokeColor=#545B64;rounded=0;exitX=0.5;exitY=0;exitDx=0;exitDy=0;exitPerimeter=0;" parent="1" source="g3gq_HhnG7qoFRwAYCXK-41" target="g3gq_HhnG7qoFRwAYCXK-38" edge="1">
          <mxGeometry width="100" relative="1" as="geometry">
            <mxPoint x="-165.5" y="380" as="sourcePoint" />
            <mxPoint x="-65.5" y="380" as="targetPoint" />
          </mxGeometry>
        </mxCell>
        <mxCell id="g3gq_HhnG7qoFRwAYCXK-44" value="" style="edgeStyle=orthogonalEdgeStyle;html=1;endArrow=block;elbow=vertical;startArrow=block;startFill=1;endFill=1;strokeColor=#545B64;rounded=0;entryX=0;entryY=0.5;entryDx=0;entryDy=0;entryPerimeter=0;exitX=0.38;exitY=0.02;exitDx=0;exitDy=0;exitPerimeter=0;" parent="1" source="g3gq_HhnG7qoFRwAYCXK-38" target="g3gq_HhnG7qoFRwAYCXK-7" edge="1">
          <mxGeometry width="100" relative="1" as="geometry">
            <mxPoint x="270" y="300" as="sourcePoint" />
            <mxPoint x="370" y="300" as="targetPoint" />
            <Array as="points">
              <mxPoint x="-120" y="-1" />
            </Array>
          </mxGeometry>
        </mxCell>
        <mxCell id="g3gq_HhnG7qoFRwAYCXK-45" value="" style="edgeStyle=orthogonalEdgeStyle;html=1;endArrow=block;elbow=vertical;startArrow=block;startFill=1;endFill=1;strokeColor=#545B64;rounded=0;entryX=0.5;entryY=1;entryDx=0;entryDy=0;entryPerimeter=0;exitX=0.5;exitY=0;exitDx=0;exitDy=0;" parent="1" source="g3gq_HhnG7qoFRwAYCXK-35" target="g3gq_HhnG7qoFRwAYCXK-7" edge="1">
          <mxGeometry width="100" relative="1" as="geometry">
            <mxPoint x="270" y="300" as="sourcePoint" />
            <mxPoint x="370" y="300" as="targetPoint" />
          </mxGeometry>
        </mxCell>
        <mxCell id="g3gq_HhnG7qoFRwAYCXK-46" value="" style="edgeStyle=orthogonalEdgeStyle;html=1;endArrow=block;elbow=vertical;startArrow=block;startFill=1;endFill=1;strokeColor=#545B64;rounded=0;entryX=0.5;entryY=1;entryDx=0;entryDy=0;exitX=0.5;exitY=0;exitDx=0;exitDy=0;exitPerimeter=0;" parent="1" source="g3gq_HhnG7qoFRwAYCXK-9" target="g3gq_HhnG7qoFRwAYCXK-35" edge="1">
          <mxGeometry width="100" relative="1" as="geometry">
            <mxPoint x="270" y="300" as="sourcePoint" />
            <mxPoint x="370" y="300" as="targetPoint" />
          </mxGeometry>
        </mxCell>
        <mxCell id="g3gq_HhnG7qoFRwAYCXK-47" value="" style="edgeStyle=orthogonalEdgeStyle;html=1;endArrow=block;elbow=vertical;startArrow=block;startFill=1;endFill=1;strokeColor=#545B64;rounded=0;exitX=0.5;exitY=0;exitDx=0;exitDy=0;exitPerimeter=0;entryX=0;entryY=0.5;entryDx=0;entryDy=0;" parent="1" target="g3gq_HhnG7qoFRwAYCXK-35" edge="1">
          <mxGeometry width="100" relative="1" as="geometry">
            <mxPoint x="340" y="250" as="sourcePoint" />
            <mxPoint x="550" y="440" as="targetPoint" />
            <Array as="points">
              <mxPoint x="340" y="170" />
            </Array>
          </mxGeometry>
        </mxCell>
        <mxCell id="g3gq_HhnG7qoFRwAYCXK-50" value="" style="edgeStyle=orthogonalEdgeStyle;html=1;endArrow=block;elbow=vertical;startArrow=block;startFill=1;endFill=1;strokeColor=#545B64;rounded=0;" parent="1" edge="1">
          <mxGeometry width="100" relative="1" as="geometry">
            <mxPoint x="-260.25" y="290" as="sourcePoint" />
            <mxPoint x="-160.25" y="290" as="targetPoint" />
          </mxGeometry>
        </mxCell>
        <mxCell id="g3gq_HhnG7qoFRwAYCXK-53" value="" style="edgeStyle=orthogonalEdgeStyle;html=1;endArrow=block;elbow=vertical;startArrow=block;startFill=1;endFill=1;strokeColor=#545B64;rounded=0;" parent="1" edge="1">
          <mxGeometry width="100" relative="1" as="geometry">
            <mxPoint x="-65.25" y="290" as="sourcePoint" />
            <mxPoint x="34.75" y="290" as="targetPoint" />
          </mxGeometry>
        </mxCell>
      </root>
    </mxGraphModel>
  </diagram>
</mxfile>
